<svg xmlns="http://www.w3.org/2000/svg" width="200" height="200" viewBox="0 0 200 200" fill="none">
<path d="M157.794 53.5387C157.694 50.5387 157.094 47.4387 154.394 46.0387C148.794 42.9387 139.894 44.5387 133.294 45.0387C131.594 45.2387 95.8937 48.1387 65.6937 47.4387C63.9937 47.4387 62.3938 47.7387 60.8938 48.5387C58.7938 49.9387 58.5938 52.9387 58.5938 55.1387C58.6938 60.5387 58.9937 66.0387 59.5937 71.3387C59.5937 71.4387 62.5937 117.739 62.8937 145.839C62.8937 146.939 62.8937 146.839 63.4937 147.639C66.0937 150.939 77.1937 155.139 82.4937 156.239C92.2937 158.439 106.094 160.039 109.394 159.239C112.694 159.739 116.594 160.039 118.894 160.039C118.894 159.839 118.794 159.639 118.794 159.539C118.594 157.639 119.294 152.739 120.694 151.339C120.494 151.139 120.194 150.939 119.994 150.839L119.794 151.039C116.394 152.939 110.894 152.939 110.794 148.239C110.694 146.039 112.294 144.139 112.494 142.139H112.594C110.794 138.239 112.294 135.539 114.094 134.839C113.694 134.239 112.094 132.239 111.594 131.739C110.794 130.739 110.994 129.339 111.994 128.639C111.794 128.439 112.294 129.139 107.894 122.739C110.394 120.939 109.594 121.539 111.494 120.039C116.094 126.539 115.494 125.539 115.594 126.139C116.394 125.939 117.194 126.339 117.694 126.939C118.694 128.239 120.194 130.039 121.794 132.039L121.994 131.939C125.994 129.639 131.994 130.839 135.894 131.839C140.994 133.039 146.094 132.939 150.494 135.939L151.094 135.739C150.094 128.539 151.194 121.039 151.594 113.839C153.694 68.8387 157.994 64.5387 157.794 53.5387Z" fill="white"/>
<path d="M133.295 44.9387C124.695 44.2387 80.8953 40.4387 72.3953 39.1387C70.9953 38.9387 68.9953 38.3387 67.5953 39.1387C65.9953 40.0387 65.7953 43.1387 65.7953 44.7387C65.6953 45.5387 65.6953 46.4387 65.6953 47.4387C92.1953 47.4387 133.295 45.3387 133.295 44.9387Z" fill="#E5E5E5"/>
<path d="M62.9121 146.936C62.8121 146.836 62.9121 146.736 63.0121 146.736L62.8121 146.536C62.7121 138.736 61.9121 113.636 61.8121 111.236L62.0122 111.036C60.0122 107.736 58.6122 104.136 57.9122 100.336H57.7121C56.6121 114.836 54.0122 139.736 54.6122 151.636C54.8122 153.136 54.9122 154.736 56.2122 155.736C58.0122 156.936 61.2122 156.436 63.2122 156.436C68.6122 156.336 76.8122 156.236 82.1122 156.436L82.2122 156.136C79.4122 155.636 76.6122 154.736 73.9121 153.536C71.3122 152.336 64.4121 150.036 62.9121 146.936Z" fill="#E5E5E5"/>
<path d="M150.903 136.039C150.703 136.039 150.403 135.839 150.403 135.639C149.603 130.139 150.103 124.439 150.503 118.939C151.203 109.239 151.603 91.2386 154.803 71.7386C155.703 65.8386 157.303 59.6386 157.203 53.5386C157.203 49.9386 156.203 47.7386 154.103 46.5386C149.403 43.9386 141.903 44.7386 135.903 45.3386C128.203 46.1386 92.7031 48.6386 65.7031 47.9386C64.2031 47.9386 62.6031 48.2386 61.2031 48.9386C59.4031 50.0386 59.2031 52.6386 59.2031 55.0386C59.2031 60.0386 59.5031 65.3386 60.2031 71.2386C60.3031 71.5386 60.4031 81.0386 60.6031 81.9386C60.7031 82.2386 60.5031 82.6386 60.1031 82.6386C59.5031 82.6386 59.5031 82.6386 59.3031 75.3386C59.3031 73.5386 59.2031 71.6386 59.2031 71.4386C58.5031 65.5386 58.2031 60.2386 58.2031 55.1386C58.2031 53.3386 58.2031 49.6386 60.7031 48.1386C62.3031 47.3386 64.0031 46.9386 65.7031 47.0386C93.5031 47.7386 128.803 45.1386 135.803 44.4386C141.903 43.8386 149.603 43.0386 154.603 45.7386C157.003 47.1386 158.203 49.6386 158.203 53.6386C158.303 59.8386 156.703 66.0386 155.703 71.9386C152.503 91.6386 152.103 109.639 151.403 119.139C151.003 124.539 150.603 130.239 151.303 135.639C151.503 135.839 151.203 136.039 150.903 136.039Z" fill="black"/>
<path d="M118.592 159.538C109.292 159.338 97.9922 157.438 90.4922 151.938C88.1922 150.238 86.3922 147.738 85.3922 144.738C85.0922 143.838 85.1922 140.638 83.4922 140.238C81.1922 139.838 79.7922 142.638 70.8922 144.738C70.3922 144.838 65.3922 145.138 63.4922 145.838C63.3922 138.338 62.7922 118.738 62.4922 111.238C62.4922 110.938 62.1922 110.738 61.9922 110.738C61.6922 110.738 61.4922 110.938 61.4922 111.238C61.6922 118.238 62.3922 139.338 62.4922 146.438C62.4922 146.438 62.3922 146.538 62.3922 146.838V147.038C63.5922 149.638 67.8922 151.438 71.2922 152.938C73.7922 154.038 76.4922 155.438 82.1922 156.738C92.1922 159.038 105.892 160.538 109.292 159.738C112.092 160.138 115.292 160.438 118.592 160.538C119.192 160.638 119.192 159.638 118.592 159.538ZM82.3922 155.838C76.7922 154.638 74.0922 153.138 71.6922 152.138C68.6922 150.838 64.5922 149.038 63.3922 146.938C64.5922 146.338 70.4922 145.938 71.0922 145.738C74.2922 144.938 76.9922 144.038 79.3922 142.838C80.4922 142.338 82.1922 141.038 83.2922 141.238C83.9922 141.338 84.1922 144.338 84.4922 145.038C85.5922 148.238 87.4922 150.938 89.9922 152.738C94.3922 156.038 99.8922 157.938 104.692 158.938C98.9922 158.738 89.5922 157.438 82.3922 155.838Z" fill="black"/>
<path d="M48.1047 28.6386C47.0047 25.6386 45.7047 21.3386 42.7047 19.6386C39.6047 17.9386 35.9047 18.3386 33.1047 15.8386C31.4047 14.2386 30.5047 8.8386 28.2047 6.4386C26.8047 4.9386 24.7047 4.8386 21.8047 6.7386C23.6047 12.6386 25.4047 19.3386 31.8047 22.2386C34.6047 23.4386 38.0047 23.6386 40.4047 25.7386C43.2047 28.1386 43.4047 31.8386 45.5047 34.5386C46.5047 35.7386 48.2047 36.0386 49.0047 34.5386C49.9047 32.7386 48.7047 30.3386 48.1047 28.6386Z" fill="black"/>
<path d="M34.1922 35.4379C30.6922 35.1379 27.3922 36.8379 23.8922 35.6379C21.8922 34.9379 19.2922 31.1379 16.3922 29.5379C14.2922 28.4379 12.0922 28.4379 9.99219 31.6379C13.9922 36.4379 18.1922 41.9379 25.1922 42.0379C28.2922 42.1379 31.4922 40.9379 34.4922 41.9379C37.8922 43.0379 39.5922 46.3379 42.5922 48.0379C43.9922 48.8379 45.5922 48.4379 45.7922 46.6379C45.9922 44.6379 44.0922 42.8379 42.7922 41.5379C40.5922 39.2379 37.6922 35.8379 34.1922 35.4379Z" fill="black"/>
<path d="M61.1872 15.7367C61.6872 15.9367 63.9872 15.2367 63.9872 14.8367C63.7872 14.0367 63.5872 13.1367 63.1872 12.3367C62.5872 10.6367 62.3872 9.83673 62.6872 8.93673C63.1872 7.43673 64.8872 6.53673 66.4872 7.13673C68.0872 7.63673 69.2872 9.13673 69.5872 10.8367C69.9872 13.4367 68.4872 15.4367 66.3872 16.8367C65.4872 17.4367 63.7872 18.0367 63.3872 19.2367C63.0872 20.0367 63.8872 22.6367 64.8872 23.0367C65.3872 23.2367 65.9872 23.1367 66.4872 22.9367C67.7872 22.6367 66.6872 19.9367 67.5872 18.8367C68.8872 17.3367 71.0872 16.9367 72.2872 15.1367C74.9872 11.0367 71.8872 5.03673 66.5872 4.53673C61.6872 4.13673 58.2872 7.03673 59.3872 11.6367C59.4872 12.5367 59.9872 15.4367 61.1872 15.7367Z" fill="black"/>
<path d="M66.6063 24.6363C66.3063 24.7363 65.4063 24.7363 65.3063 25.1363C65.1063 25.3363 65.1063 25.6363 65.2063 25.7363C65.5063 26.7363 65.4063 27.5363 66.2063 27.5363C67.2063 27.3363 67.6063 27.4363 68.0063 26.9363C68.2063 26.7363 68.2063 26.5363 68.1063 26.3363C68.0063 26.0363 67.9063 25.6363 67.9063 25.3363C67.6063 24.8363 67.1063 24.5363 66.6063 24.6363Z" fill="black"/>
<path d="M47.3891 70.5376C46.8891 70.3376 46.3891 70.7376 46.2891 71.1376L46.0891 71.5376C45.9891 71.7376 45.9891 72.0376 46.1891 72.1376C46.2891 72.5376 47.0891 72.5376 47.6891 72.7376C47.8891 72.8376 48.1891 72.6376 48.2891 72.4376C48.3891 72.2376 48.4891 71.9376 48.4891 71.6376C48.5891 71.4376 48.5891 71.1376 48.3891 71.0376C48.2891 70.6376 47.5891 70.6376 47.3891 70.5376Z" fill="black"/>
<path d="M42.1935 68.0345C41.5935 66.4345 42.1935 64.6345 41.2935 62.9345C39.1935 59.2345 33.4935 59.2345 30.9935 63.0345C28.6935 66.5345 29.4935 70.3345 33.4935 71.4345C34.1935 71.6345 36.5935 72.3345 37.3935 71.6345C37.6935 71.3345 38.1935 69.3345 37.7935 69.1345C36.4935 68.7345 35.3935 68.6345 34.8935 68.5345C34.2935 68.5345 33.4935 68.2345 32.8935 67.7345C31.8935 66.7345 31.9935 65.1345 32.9935 64.1345C34.0935 63.1345 35.5935 62.8345 36.9935 63.3345C39.0935 64.0345 40.0935 66.0345 40.2935 68.2345C40.3935 69.1345 40.1935 70.7345 40.8935 71.4345C41.3935 71.9345 43.6935 72.3345 44.2935 71.8345C44.5935 71.6345 44.7935 70.9345 44.8935 70.5345C45.1935 69.3345 42.5935 69.1345 42.1935 68.0345Z" fill="black"/>
<path d="M186.283 174.836C182.683 171.536 178.383 169.136 173.783 165.936C170.883 164.536 168.283 159.636 166.583 157.236C161.983 150.436 157.883 142.036 151.583 136.636C147.783 132.836 140.483 132.736 135.683 131.536C130.583 130.336 125.983 129.536 121.583 131.736C129.083 141.036 128.983 140.936 128.983 141.136C126.183 138.836 123.183 136.836 119.883 135.336C113.283 132.236 109.883 136.636 112.283 141.936C111.983 143.936 110.483 146.136 110.583 148.136C110.783 153.336 117.983 152.636 119.783 150.836C119.983 151.036 120.283 151.236 120.483 151.336C119.383 152.436 118.683 155.836 118.583 158.136C118.283 162.636 120.583 168.136 125.283 170.136V170.236C125.083 172.736 126.683 173.736 127.383 174.336C128.283 175.136 129.283 175.736 130.383 176.136C129.483 178.036 133.183 182.236 138.083 181.336C138.883 181.236 139.783 180.836 140.383 180.236L140.483 180.336C140.383 180.336 140.683 180.536 140.783 180.636C144.583 184.436 147.783 186.736 150.683 188.336C155.683 191.136 160.683 189.336 165.983 190.836C169.983 191.936 173.583 195.636 177.983 194.036C182.983 192.236 187.783 186.536 188.983 183.036C190.083 180.036 188.683 177.036 186.283 174.836Z" fill="white"/>
<path fill-rule="evenodd" clip-rule="evenodd" d="M121.373 131.289C125.952 128.999 130.721 129.852 135.811 131.049C136.989 131.343 138.332 131.574 139.755 131.812L139.956 131.845C141.311 132.072 142.735 132.31 144.131 132.623C147.044 133.276 149.932 134.273 151.937 136.269C155.133 139.013 157.76 142.504 160.152 146.136C161.261 147.82 162.325 149.542 163.371 151.236L163.624 151.645C164.753 153.472 165.866 155.263 167.008 156.952C167.384 157.483 167.802 158.132 168.249 158.825L168.452 159.14C168.979 159.958 169.548 160.83 170.153 161.669C171.376 163.367 172.688 164.846 174.014 165.486C174.128 165.547 174.214 165.649 174.254 165.772C174.294 165.895 174.285 166.028 174.229 166.144C174.173 166.261 174.074 166.351 173.953 166.396C173.832 166.441 173.699 166.437 173.58 166.386C172.006 165.627 170.568 163.955 169.341 162.253C168.743 161.411 168.166 160.553 167.611 159.682L167.407 159.365C166.957 158.667 166.552 158.037 166.189 157.525L166.183 157.516C165.026 155.807 163.902 153.998 162.773 152.171L162.522 151.764C161.474 150.067 160.418 148.358 159.317 146.686C156.938 143.074 154.368 139.67 151.272 137.016L151.257 137.003L151.243 136.99C149.449 135.195 146.793 134.245 143.913 133.599C142.544 133.292 141.145 133.058 139.783 132.83L139.589 132.798C138.175 132.561 136.801 132.327 135.579 132.022C130.471 130.82 126.041 130.073 121.821 132.183C121.762 132.213 121.698 132.231 121.633 132.236C121.567 132.241 121.501 132.233 121.438 132.213C121.375 132.192 121.317 132.16 121.267 132.116C121.217 132.073 121.176 132.021 121.147 131.962C121.117 131.903 121.1 131.839 121.095 131.773C121.09 131.707 121.099 131.641 121.12 131.578C121.141 131.516 121.174 131.458 121.218 131.408C121.261 131.359 121.314 131.318 121.373 131.289Z" fill="black"/>
<path d="M111.506 119.738C109.606 121.138 110.406 120.538 107.906 122.438C112.306 128.738 111.806 128.138 112.006 128.338C114.406 126.638 114.606 126.038 115.606 125.838C115.606 125.138 116.206 126.138 111.506 119.738Z" fill="#E5E5E5"/>
<path d="M117.601 126.538C117.101 125.938 116.301 125.638 115.501 125.738C114.801 125.838 114.501 126.138 111.901 128.238C110.901 129.038 110.701 130.438 111.501 131.338C111.901 131.938 113.601 133.938 114.001 134.438C115.801 133.638 118.401 134.238 120.101 135.038C123.401 136.538 126.501 138.538 129.201 140.838C129.201 140.738 117.701 126.638 117.601 126.538Z" fill="black"/>
<path d="M122.902 94.7391C123.002 76.9391 108.302 62.6391 90.3016 62.5391C77.2016 62.5391 65.3016 70.2391 60.2016 82.3391C56.2016 91.7391 56.9016 102.539 62.3016 111.239C73.2016 128.839 95.2016 131.439 109.902 120.639C118.002 114.439 122.802 104.939 122.902 94.7391ZM90.1016 123.239C74.2016 123.439 61.1016 110.439 61.0016 94.5391C60.9016 78.8391 73.6016 65.9391 89.4016 65.8391C105.302 65.6391 118.302 78.3391 118.502 94.2391C118.802 110.139 106.102 123.039 90.1016 123.239Z" fill="black"/>
<path d="M117.7 141.737C119 141.437 120.7 140.238 121.2 138.938C121.4 138.238 121.3 137.637 120.8 137.137C119.9 135.937 117.9 135.837 117.1 135.837C113.7 135.837 113 139.337 115.7 140.837C115.9 140.937 116 141.237 115.9 141.537C115.8 141.837 115.5 141.837 115.2 141.737C111.6 139.637 112.6 134.737 117.1 134.837C118.3 134.837 120.4 135.038 121.5 136.438C123.6 138.838 120.7 142.137 117.8 142.637C117.3 142.837 117.1 141.837 117.7 141.737Z" fill="black"/>
<path d="M186.692 174.537C183.092 171.237 178.792 168.737 174.192 165.637C173.992 165.437 173.692 165.537 173.492 165.737C173.292 165.937 173.392 166.237 173.592 166.437C178.192 169.537 182.492 172.037 185.992 175.337C188.492 177.537 189.492 180.337 188.592 183.037C187.492 186.337 182.892 192.037 177.992 193.737C173.792 195.237 170.292 191.637 166.292 190.537C160.992 189.037 155.992 190.837 151.192 188.137C146.692 185.637 143.992 182.837 141.292 180.437C141.892 179.737 142.092 178.837 142.092 177.937C144.792 179.937 147.992 181.337 151.192 181.937C151.492 182.037 151.692 181.837 151.792 181.537C151.792 181.237 151.692 181.037 151.392 180.937C144.892 179.737 139.492 175.537 136.292 169.937C135.292 168.337 134.492 166.537 133.592 164.737C130.792 158.937 129.092 157.137 123.292 152.637C122.292 151.937 119.592 149.737 118.692 148.937C115.492 145.937 110.592 140.337 112.792 136.437C114.092 134.137 117.492 134.637 119.892 135.737C127.692 139.537 129.092 142.337 137.792 148.037C138.892 148.737 144.092 152.137 145.492 153.537C145.692 153.837 145.992 154.237 146.192 154.537C146.392 154.737 146.692 154.837 146.892 154.637C147.092 154.437 147.192 154.137 146.992 153.937C146.292 153.037 146.792 152.737 139.292 147.837C139.692 146.837 141.192 145.737 142.092 145.037C142.292 144.837 142.292 144.537 142.192 144.337C141.992 144.137 141.692 144.137 141.492 144.237C140.492 145.037 139.092 146.137 138.492 147.237C129.492 141.337 128.292 138.737 120.292 134.837C118.492 134.037 115.792 133.437 113.792 134.237C111.692 135.137 110.292 137.937 111.892 141.737C111.892 143.837 110.092 145.837 110.192 148.237C110.392 153.037 115.592 153.637 119.792 151.637C116.392 157.037 117.892 167.337 124.792 170.537C124.692 173.037 126.092 174.137 126.892 174.737C127.792 175.437 128.492 176.037 129.792 176.537C129.592 179.437 133.692 182.837 138.192 182.037C138.992 181.937 139.792 181.637 140.392 181.137C143.192 183.837 145.892 186.437 150.492 189.037C155.692 191.937 160.692 190.137 165.892 191.537C169.892 192.637 173.592 196.437 178.192 194.737C180.492 193.937 182.592 192.437 184.292 190.637C186.192 188.837 188.592 185.937 189.392 183.337C190.492 180.237 189.392 177.037 186.692 174.537ZM112.892 150.937C111.892 150.337 111.392 149.337 111.292 148.037C111.192 146.337 112.292 144.837 112.792 143.137C114.292 145.837 116.992 148.737 119.292 150.637C117.392 151.537 114.592 151.937 112.892 150.937ZM123.892 168.637C118.492 164.837 118.092 155.737 120.792 151.837C124.692 154.937 128.092 157.137 130.492 161.137C129.192 159.937 127.692 159.137 126.192 159.037C125.892 159.037 125.692 159.237 125.692 159.537C125.692 159.837 125.892 160.037 126.192 160.037C129.892 160.137 134.292 166.237 132.692 168.937C132.292 169.637 131.392 170.137 130.192 170.237C130.392 167.937 127.792 164.837 125.292 165.437C123.892 165.837 123.392 167.137 123.892 168.637ZM125.592 166.437C127.392 166.037 129.492 168.637 129.292 170.337C128.092 170.337 127.092 170.137 125.792 169.637C124.692 168.637 124.192 166.737 125.592 166.437ZM127.592 173.737C126.892 173.237 125.892 172.437 125.792 170.737C129.292 171.937 133.792 171.537 133.992 167.837C135.592 171.137 136.892 172.937 138.592 174.737C137.992 175.337 137.392 175.737 136.692 176.037L136.192 175.237C134.592 173.037 131.092 173.837 130.992 175.737C129.692 175.237 129.292 175.037 127.592 173.737ZM135.592 176.337C134.392 176.537 133.092 176.437 131.892 176.037C131.692 174.937 134.092 174.337 135.292 175.837L135.592 176.337ZM140.192 179.937C139.692 180.437 138.992 180.837 138.192 180.837C134.492 181.537 131.192 178.937 130.992 176.737C133.892 177.737 137.192 177.737 139.292 175.437C139.792 175.937 140.192 176.337 140.692 176.737C141.292 177.737 141.092 179.137 140.192 179.937Z" fill="black"/>
<path d="M111.406 128.436L107.406 122.736C107.206 122.536 107.306 122.236 107.506 122.036L111.206 119.336C111.406 119.136 111.806 119.236 111.906 119.436L115.906 125.136C116.106 125.336 116.006 125.636 115.806 125.836C115.606 126.036 115.306 125.936 115.106 125.736L111.406 120.536L108.506 122.636L112.206 127.936C112.606 128.436 111.806 128.936 111.406 128.436Z" fill="black"/>
<path d="M112.405 88.7364C112.305 88.4364 112.005 88.3364 111.805 88.4364L106.305 90.5364L100.705 86.1364L100.905 81.5364L107.905 72.3364C108.105 72.1364 108.005 71.8364 107.805 71.6364C107.605 71.4364 107.305 71.5364 107.105 71.7364L100.005 81.0364C99.9047 81.2364 99.9047 80.5364 99.5047 90.0364L90.9047 92.1364L84.9047 85.6364C84.7047 85.4364 84.4047 85.4364 84.2047 85.6364C84.0047 85.8364 84.0047 86.1364 84.2047 86.3364C91.0047 93.6364 90.5047 93.1364 90.8047 93.1364C90.9047 93.1364 90.3047 93.2364 99.5047 91.0364L99.4047 93.1364L97.5047 100.036C97.4047 100.336 97.7047 100.636 98.0047 100.636C98.2047 100.636 98.4047 100.536 98.5047 100.236L100.405 93.2364C100.405 93.1364 100.405 93.4364 100.705 87.1364C106.305 91.6364 106.005 91.4364 106.305 91.4364C106.405 91.4364 106.005 91.5364 112.205 89.1364C112.305 89.2364 112.505 88.9364 112.405 88.7364Z" fill="black"/>
<path d="M73.4035 112.641C73.3035 112.641 73.2035 112.641 73.1035 112.541C70.3035 110.241 68.1035 107.241 66.7035 103.941C66.2035 102.841 65.8035 101.741 65.5035 100.641C65.5035 100.541 64.7035 98.7407 65.2035 98.4407C65.4035 98.3407 65.7035 98.3407 65.9035 98.5407C66.4035 99.0407 67.2035 106.241 73.8035 111.841C74.0035 112.141 73.8035 112.641 73.4035 112.641Z" fill="black"/>
<path d="M77.3988 115.735C76.6988 115.435 75.9988 114.935 75.4988 114.335C75.2988 114.135 75.2988 113.835 75.5988 113.635C75.7988 113.435 76.0988 113.435 76.2988 113.735C76.6988 114.235 77.2988 114.635 77.8988 114.935C78.3988 115.135 77.9988 116.035 77.3988 115.735Z" fill="black"/>
</svg>